<?xml version="1.0" standalone="no"?>
<!DOCTYPE svg PUBLIC "-//W3C//DTD SVG 20010904//EN"
 "http://www.w3.org/TR/2001/REC-SVG-20010904/DTD/svg10.dtd">
<svg version="1.0" xmlns="http://www.w3.org/2000/svg"
 width="527.000000pt" height="504.000000pt" viewBox="0 0 527.000000 504.000000"
 preserveAspectRatio="xMidYMid meet">

<g transform="translate(0.000000,504.000000) scale(0.100000,-0.100000)"
fill="#000000" stroke="none">
<path d="M5015 4931 c-3 -5 2 -17 11 -26 15 -15 16 -34 10 -168 -4 -84 -11
-172 -17 -197 -6 -25 -18 -101 -28 -168 -12 -92 -21 -127 -34 -137 -9 -7 -17
-25 -17 -42 0 -40 -19 -95 -38 -110 -9 -7 -28 -13 -44 -13 -23 0 -28 -4 -28
-24 0 -16 7 -27 20 -31 15 -5 20 -15 20 -45 0 -22 5 -50 11 -64 15 -32 0 -53
-39 -58 -21 -2 -28 -9 -30 -30 -2 -16 -7 -28 -12 -28 -5 0 -16 -21 -26 -47
-10 -27 -26 -55 -36 -64 -10 -9 -18 -22 -18 -28 0 -17 -23 -54 -42 -69 -10 -7
-18 -22 -18 -33 0 -11 -11 -24 -24 -30 -14 -7 -26 -23 -30 -40 -3 -16 -17 -39
-31 -51 -14 -12 -25 -32 -25 -45 0 -18 -6 -23 -24 -23 -18 0 -25 -7 -29 -30
-4 -16 -13 -30 -21 -30 -7 0 -21 -15 -29 -32 -9 -18 -29 -46 -46 -62 -17 -17
-31 -36 -31 -43 0 -7 -9 -13 -19 -13 -12 0 -21 -9 -25 -25 -4 -14 -13 -25 -20
-25 -8 0 -20 -13 -27 -29 -8 -17 -24 -33 -36 -36 -15 -3 -23 -13 -23 -26 0
-13 -10 -24 -30 -30 -19 -7 -30 -18 -30 -30 0 -12 -7 -19 -20 -19 -13 0 -24
-10 -30 -25 -5 -14 -21 -30 -35 -35 -15 -6 -25 -17 -25 -30 0 -12 -7 -20 -17
-20 -18 -1 -61 -34 -129 -97 -19 -18 -41 -33 -48 -33 -8 0 -16 -9 -19 -20 -3
-13 -14 -20 -29 -20 -12 0 -34 -9 -48 -20 -14 -11 -51 -25 -82 -32 -44 -9 -58
-16 -58 -30 0 -13 11 -19 51 -24 46 -6 72 -25 56 -41 -9 -8 -80 -20 -95 -15
-6 2 -12 15 -12 28 0 17 -6 24 -20 24 -22 0 -72 20 -81 33 -7 10 -113 56 -147
64 -18 4 -25 1 -29 -16 -4 -15 -18 -25 -49 -33 -26 -7 -44 -19 -47 -30 -3 -11
-14 -18 -30 -18 -16 0 -28 -7 -32 -19 -9 -31 -34 -34 -45 -6 -7 17 -17 25 -34
25 -13 0 -29 7 -36 15 -7 8 -18 15 -25 15 -7 0 -18 -7 -25 -15 -7 -8 -22 -15
-35 -15 -12 0 -36 -13 -53 -30 -18 -16 -40 -30 -51 -30 -12 0 -21 -9 -25 -25
-5 -18 -13 -25 -31 -25 -16 0 -25 -6 -25 -15 0 -9 -12 -21 -27 -27 -16 -7 -36
-19 -45 -28 -36 -33 -48 -40 -61 -40 -8 0 -22 -11 -31 -25 -9 -14 -24 -25 -34
-25 -9 0 -23 -9 -30 -20 -6 -11 -29 -27 -50 -35 -20 -9 -41 -21 -47 -28 -5 -8
-23 -20 -40 -29 -16 -8 -54 -27 -82 -42 -29 -15 -53 -31 -53 -37 0 -5 -6 -9
-14 -9 -7 0 -19 -7 -26 -15 -7 -8 -23 -15 -36 -15 -14 0 -25 -8 -29 -20 -4
-13 -15 -20 -30 -20 -13 0 -27 -4 -30 -10 -3 -5 -15 -10 -25 -10 -10 0 -22 -9
-25 -20 -4 -12 -15 -20 -27 -20 -12 0 -36 -11 -54 -25 -45 -35 -121 -36 -129
-2 -4 12 -16 27 -28 32 -12 6 -23 20 -25 33 -2 12 -7 22 -12 22 -17 0 -19 32
-5 73 8 23 15 49 15 58 0 9 9 19 20 22 20 5 24 11 34 60 4 15 18 37 31 49 14
12 25 29 25 39 0 11 9 19 23 21 14 2 23 11 25 26 2 14 10 22 22 22 19 0 70 19
80 30 11 12 62 30 84 30 15 0 27 9 34 25 6 14 20 25 30 25 29 0 71 23 76 42 2
11 14 18 30 18 19 0 26 5 26 18 0 10 11 25 25 32 14 7 32 24 40 37 9 12 22 23
30 23 8 0 15 8 15 18 0 10 11 25 24 32 14 7 26 22 28 34 2 12 13 22 28 26 16
4 26 14 28 29 2 13 12 25 22 28 10 3 25 24 35 48 9 25 25 47 36 50 10 4 19 13
19 22 0 8 11 28 25 44 13 16 27 44 30 62 4 20 15 37 28 42 13 6 23 21 25 38 5
37 28 35 75 -8 21 -19 44 -35 51 -35 8 0 21 -11 30 -25 23 -36 56 -33 56 4 0
20 -6 30 -20 34 -11 3 -20 13 -20 24 0 10 -12 32 -28 48 -15 17 -33 42 -39 58
-7 15 -19 27 -28 27 -9 0 -15 9 -15 25 0 15 -9 31 -25 41 -14 9 -25 23 -25 30
0 17 40 34 76 34 14 0 27 7 30 15 4 8 18 15 31 15 35 0 105 -22 121 -37 17
-16 442 -19 442 -3 0 6 9 10 19 10 10 0 21 7 25 15 3 8 16 15 28 15 46 0 96
20 101 40 4 15 14 20 37 20 23 0 39 8 58 30 15 17 32 30 39 30 8 0 18 11 23
24 5 14 19 26 32 28 15 2 24 11 26 26 2 14 10 22 23 22 14 0 21 9 26 30 4 21
11 30 24 30 12 0 24 11 30 27 5 15 18 32 28 39 19 14 48 130 36 142 -4 4 -28
12 -53 17 -43 9 -47 13 -50 42 -2 21 3 37 16 50 11 10 22 34 26 55 7 41 35 59
43 28 6 -24 41 -36 57 -20 7 7 10 50 9 128 l-2 117 -31 25 c-17 14 -30 33 -30
43 0 10 -8 17 -19 17 -10 0 -21 9 -24 20 -3 11 -19 25 -36 31 -19 7 -31 18
-31 29 0 29 -32 33 -227 33 -182 -1 -183 -1 -214 -27 -17 -14 -41 -26 -54 -26
-32 0 -77 -21 -93 -42 -7 -10 -26 -18 -42 -18 -19 0 -38 -10 -57 -30 -15 -16
-35 -30 -44 -30 -10 0 -20 -11 -23 -25 -5 -18 -13 -25 -31 -25 -18 0 -26 -7
-31 -24 -3 -13 -14 -26 -25 -29 -10 -3 -23 -17 -29 -31 -6 -16 -17 -26 -30
-26 -13 0 -22 -9 -26 -25 -3 -13 -15 -27 -25 -30 -10 -4 -19 -15 -19 -25 0
-11 -12 -25 -27 -32 -15 -7 -29 -22 -31 -33 -7 -50 -13 -63 -30 -67 -17 -5
-20 -21 -27 -139 -5 -74 -10 -156 -11 -184 -1 -27 -3 -58 -3 -67 -1 -11 -9
-18 -21 -18 -18 0 -20 -7 -20 -70 0 -65 -2 -70 -24 -76 -43 -10 -81 -1 -84 22
-5 32 -68 87 -92 79 -25 -8 -25 -21 -1 -42 11 -9 26 -37 33 -61 8 -27 20 -47
30 -50 19 -5 33 -36 23 -52 -3 -5 -28 -10 -55 -10 -43 0 -49 -3 -52 -22 -2
-15 -11 -24 -26 -26 -12 -2 -37 -17 -54 -33 -18 -16 -40 -29 -50 -29 -10 0
-23 -9 -30 -20 -7 -11 -21 -20 -31 -20 -10 0 -35 -16 -55 -35 -20 -19 -45 -35
-54 -35 -9 0 -19 -9 -23 -19 -3 -11 -16 -21 -28 -23 -12 -2 -26 -13 -32 -26
-13 -30 -70 -49 -92 -31 -12 11 -14 27 -10 82 3 38 12 77 20 86 21 25 37 69
37 101 0 17 8 34 18 42 10 7 25 35 33 61 8 27 22 53 31 58 10 6 19 28 24 57 3
26 11 53 16 59 6 7 8 19 5 27 -7 18 -45 10 -70 -15 -10 -11 -26 -19 -36 -19
-12 0 -21 -10 -25 -25 -5 -18 -13 -25 -31 -25 -18 0 -28 -7 -35 -24 -4 -13
-20 -26 -34 -30 -14 -3 -26 -12 -26 -20 0 -13 -27 -30 -67 -41 -14 -4 -23 -14
-23 -26 0 -14 -9 -21 -29 -25 -17 -4 -33 -16 -40 -30 -9 -19 -18 -24 -50 -24
-29 0 -43 -5 -50 -19 -14 -25 -62 -41 -122 -41 -27 0 -49 -4 -49 -10 0 -5 -9
-10 -19 -10 -11 0 -23 -4 -26 -10 -4 -6 -79 -10 -191 -10 -165 0 -190 2 -226
20 -28 13 -62 20 -104 20 l-62 0 -17 -44 c-9 -24 -27 -49 -41 -56 -13 -8 -24
-21 -24 -31 0 -11 -9 -19 -22 -21 -15 -2 -24 -11 -26 -26 -2 -13 -14 -27 -27
-32 -13 -5 -26 -17 -29 -28 -4 -10 -18 -24 -31 -30 -15 -7 -25 -20 -25 -32 0
-13 -7 -20 -19 -20 -12 0 -23 -11 -29 -29 -6 -16 -20 -32 -31 -36 -12 -3 -21
-11 -21 -16 0 -6 -10 -20 -22 -33 -29 -29 -48 -62 -48 -80 0 -8 -9 -18 -20
-21 -11 -3 -23 -18 -26 -31 -4 -14 -17 -30 -30 -34 -15 -6 -24 -18 -24 -30 0
-12 -10 -25 -24 -31 -18 -9 -26 -22 -31 -55 -5 -34 -11 -43 -28 -46 -15 -2
-23 -11 -25 -28 -2 -15 -12 -30 -25 -35 -22 -10 -38 -65 -19 -65 14 0 42 35
42 53 0 10 8 17 18 17 23 0 42 19 42 42 0 12 8 18 25 18 18 0 26 7 31 26 6 24
10 26 45 20 59 -9 103 -38 109 -71 6 -31 39 -59 47 -37 3 6 13 12 24 12 10 0
29 11 41 25 26 30 35 31 56 6 17 -19 90 -41 136 -41 14 0 26 -3 26 -7 0 -13
60 -43 85 -43 13 0 27 -5 30 -10 3 -5 14 -10 24 -10 10 0 21 -9 24 -20 3 -14
14 -20 31 -20 14 0 26 -4 26 -10 0 -5 7 -10 15 -10 8 0 15 -4 15 -9 0 -13 34
-23 54 -15 9 3 16 14 16 24 0 13 11 20 37 25 47 8 243 -4 243 -16 0 -5 8 -9
19 -9 10 0 35 -7 55 -15 30 -13 36 -20 36 -45 0 -41 -31 -70 -75 -70 -19 0
-35 5 -35 10 0 6 -9 10 -20 10 -11 0 -20 -4 -20 -10 0 -5 -11 -12 -25 -16 -14
-3 -31 -18 -38 -33 -7 -14 -22 -27 -34 -29 -14 -2 -23 -12 -25 -25 -2 -14 -11
-23 -24 -25 -17 -2 -23 -12 -28 -43 -10 -60 3 -119 25 -119 11 0 21 -9 24 -23
4 -12 16 -27 28 -32 12 -6 23 -20 25 -32 2 -12 19 -36 37 -55 19 -18 35 -38
35 -45 0 -6 20 -19 45 -29 25 -9 45 -22 45 -29 0 -13 22 -25 46 -25 8 0 19 11
24 25 6 15 17 25 29 25 12 0 21 9 25 25 4 16 13 25 26 25 15 0 20 7 20 26 0
21 4 25 23 22 14 -2 23 -11 25 -25 2 -15 10 -23 22 -23 10 0 21 -4 24 -9 10
-16 -5 -41 -24 -41 -10 0 -22 -9 -25 -20 -3 -11 -13 -20 -21 -20 -8 0 -19 -11
-24 -24 -5 -14 -18 -29 -28 -35 -15 -8 -21 -24 -24 -65 -4 -46 -10 -61 -36
-86 -18 -16 -38 -30 -46 -30 -8 0 -18 -9 -21 -20 -4 -11 -20 -27 -36 -35 -22
-12 -29 -23 -29 -45 0 -20 -8 -35 -25 -46 -14 -9 -25 -22 -25 -29 0 -8 -11
-26 -24 -42 -13 -16 -27 -45 -31 -65 -5 -27 -13 -38 -28 -40 -16 -2 -24 -14
-32 -46 -5 -24 -18 -49 -28 -56 -9 -7 -17 -20 -17 -29 0 -27 -22 -66 -47 -82
-12 -9 -23 -24 -23 -35 0 -10 -9 -22 -20 -25 -11 -4 -20 -15 -20 -27 0 -11 -8
-28 -18 -37 -26 -22 -45 -60 -38 -77 8 -22 34 -16 38 9 2 15 11 23 30 25 19 2
28 10 30 25 2 16 11 23 30 25 20 2 30 10 34 28 4 14 13 24 24 24 10 0 23 13
30 30 9 21 19 30 36 30 15 0 24 6 24 15 0 9 8 19 18 22 20 8 36 21 64 50 11
12 31 24 43 27 15 4 25 15 27 29 2 16 11 23 31 25 21 3 27 9 27 28 0 19 5 24
24 24 17 0 26 7 30 24 3 14 16 26 30 30 15 4 26 14 28 29 2 14 11 23 27 25 13
2 26 12 28 23 3 11 16 22 29 25 12 3 30 17 39 30 8 13 22 24 30 24 8 0 15 5
15 10 0 6 7 10 15 10 8 0 22 11 31 25 10 15 26 25 40 25 17 0 24 6 24 20 0 14
7 20 24 20 29 0 35 -13 28 -58 -4 -27 -2 -32 16 -32 13 0 22 9 26 25 5 18 13
25 30 25 18 0 26 6 28 22 2 14 12 24 28 28 20 5 27 14 34 52 7 36 14 48 30 50
18 3 21 9 19 45 -1 23 -9 53 -19 68 -9 14 -15 27 -13 28 39 22 52 27 69 27 13
0 20 -7 20 -19 0 -10 10 -25 23 -34 21 -14 22 -21 25 -165 l3 -151 -24 -7
c-15 -3 -28 -15 -31 -30 -4 -13 -12 -24 -20 -24 -23 0 -76 -31 -76 -45 0 -8
-13 -15 -32 -17 -24 -2 -34 -8 -36 -23 -2 -15 -16 -25 -48 -34 -28 -9 -49 -22
-55 -35 -5 -11 -14 -28 -20 -37 -10 -13 -4 -23 31 -56 l42 -41 10 -144 c16
-241 19 -278 27 -278 5 0 13 -46 20 -102 9 -80 16 -106 32 -121 24 -22 21 -38
-10 -52 -14 -6 -21 -17 -19 -30 4 -27 31 -26 43 2 6 15 21 23 51 28 30 4 47
13 58 30 10 14 26 25 39 25 12 0 28 9 34 20 7 10 29 22 48 26 26 4 39 14 45
30 5 13 17 24 25 24 9 0 27 11 40 24 13 13 40 29 60 36 23 7 40 21 45 36 6 14
18 24 29 24 11 0 23 9 26 20 3 11 14 20 24 20 9 0 27 13 39 30 13 17 28 30 34
30 6 0 28 16 49 35 22 19 43 35 48 35 5 0 12 9 16 19 3 11 16 21 28 23 14 2
23 11 25 25 2 15 13 25 28 29 14 4 30 17 34 30 6 14 18 24 29 24 12 0 21 9 25
25 4 15 16 27 32 31 14 4 30 17 34 30 6 14 18 24 28 24 11 0 31 12 46 26 23
24 26 34 25 93 0 67 -20 198 -32 218 -4 7 2 64 13 127 11 63 20 142 20 175 0
55 2 62 24 70 19 8 25 19 30 59 5 37 11 51 25 55 13 3 22 18 28 48 6 30 15 47
29 53 12 5 26 22 32 38 7 18 17 28 31 28 16 0 21 6 21 25 0 15 6 25 15 25 8 0
22 11 31 25 9 14 27 28 39 31 13 3 25 14 28 25 3 11 14 19 25 19 11 0 37 16
58 35 20 19 45 35 55 35 12 0 19 7 19 20 0 12 10 24 24 30 13 5 27 18 31 29 4
13 18 21 43 26 24 4 45 16 61 35 13 17 29 30 37 30 8 0 14 7 14 16 0 8 14 20
30 25 19 7 30 18 30 30 0 12 10 23 26 29 14 6 28 19 31 30 3 10 15 20 27 22
13 2 22 11 24 26 2 14 14 27 29 33 14 5 27 18 30 28 2 10 16 24 29 30 13 6 24
16 24 22 0 7 11 24 24 38 52 55 93 107 99 124 4 11 16 21 27 24 11 3 20 14 20
24 0 11 11 24 25 31 14 6 25 19 25 29 0 10 12 24 27 31 16 8 30 25 34 42 5 17
20 40 34 53 14 13 25 33 25 43 0 13 9 22 25 26 18 4 25 13 25 30 0 14 7 27 15
30 15 6 45 58 45 80 0 7 9 16 20 19 12 4 20 15 20 30 0 12 13 37 29 54 17 18
33 42 37 54 4 12 15 28 25 35 10 7 21 31 25 57 4 29 11 45 21 45 15 0 43 57
43 90 0 13 7 20 19 20 20 0 24 8 37 70 3 19 13 39 21 45 7 5 17 34 22 63 4 29
17 63 28 75 12 13 24 51 31 96 8 45 19 79 29 86 12 9 18 40 24 131 9 140 5
119 28 141 11 11 20 38 24 68 2 28 11 89 18 136 11 78 11 98 -6 189 -15 81
-23 104 -37 108 -11 3 -20 17 -24 41 -9 56 -12 61 -34 61 -11 0 -24 8 -27 18
-4 9 -11 20 -17 24 -15 11 -54 10 -61 -1z m-1560 -627 c-16 -16 -31 -18 -40
-4 -10 17 3 28 29 23 22 -4 23 -7 11 -19z m-55 -38 c0 -18 -7 -25 -28 -29 -15
-3 -42 -19 -60 -36 -17 -17 -38 -31 -45 -31 -7 0 -17 -10 -22 -22 -6 -13 -20
-24 -32 -26 -13 -2 -23 -11 -25 -25 -3 -23 -34 -35 -49 -20 -14 14 0 43 21 43
11 0 20 10 24 30 4 21 11 30 25 30 13 0 21 8 23 23 2 15 11 23 30 25 19 2 28
10 30 25 3 22 30 34 81 36 22 1 27 -3 27 -23z m-666 -2132 c14 -37 6 -74 -19
-86 -14 -6 -25 -19 -25 -28 0 -21 -64 -75 -88 -75 -13 0 -18 11 -20 43 -3 37
2 51 32 90 20 25 36 51 36 59 0 20 76 18 84 -3z"/>
<path d="M3960 4815 c0 -8 7 -15 15 -15 8 0 15 7 15 15 0 8 -7 15 -15 15 -8 0
-15 -7 -15 -15z"/>
<path d="M4240 4650 c0 -5 7 -10 16 -10 8 0 12 5 9 10 -3 6 -10 10 -16 10 -5
0 -9 -4 -9 -10z"/>
<path d="M2490 3824 c0 -8 5 -12 10 -9 6 4 8 11 5 16 -9 14 -15 11 -15 -7z"/>
<path d="M2383 3693 c-21 -8 -15 -33 7 -33 13 0 20 7 20 20 0 20 -5 23 -27 13z"/>
<path d="M3025 3011 c-7 -12 12 -24 25 -16 11 7 4 25 -10 25 -5 0 -11 -4 -15
-9z"/>
<path d="M240 2240 c0 -24 25 -27 34 -4 9 23 8 24 -14 24 -13 0 -20 -7 -20
-20z"/>
<path d="M140 2074 c0 -8 5 -12 10 -9 6 4 8 11 5 16 -9 14 -15 11 -15 -7z"/>
<path d="M85 1970 c-3 -5 -1 -10 4 -10 6 0 11 5 11 10 0 6 -2 10 -4 10 -3 0
-8 -4 -11 -10z"/>
<path d="M1670 1540 c0 -5 7 -10 15 -10 8 0 15 5 15 10 0 6 -7 10 -15 10 -8 0
-15 -4 -15 -10z"/>
<path d="M2050 1204 c0 -8 5 -12 10 -9 6 3 10 10 10 16 0 5 -4 9 -10 9 -5 0
-10 -7 -10 -16z"/>
<path d="M405 750 c-3 -11 -15 -20 -25 -20 -10 0 -21 -7 -24 -16 -12 -32 -4
-94 13 -94 4 0 23 14 41 30 18 17 44 30 57 30 32 0 31 36 -3 66 -31 29 -51 30
-59 4z"/>
<path d="M347 422 c-22 -65 -22 -64 11 -60 24 3 27 8 28 40 1 20 -4 45 -10 54
-11 15 -15 10 -29 -34z"/>
<path d="M1065 440 c-4 -6 -10 -24 -15 -40 -8 -28 -7 -30 20 -30 38 0 44 13
25 50 -17 33 -21 35 -30 20z"/>
<path d="M950 345 c-9 -11 -10 -19 -3 -26 14 -14 43 0 43 22 0 23 -23 25 -40
4z"/>
<path d="M310 324 c0 -8 5 -12 10 -9 6 4 8 11 5 16 -9 14 -15 11 -15 -7z"/>
<path d="M288 148 c-8 -71 34 -91 46 -24 8 42 -1 66 -24 66 -14 0 -19 -10 -22
-42z"/>
</g>
</svg>
